@startuml 

title Prettier-Composite Pattern 

skinparam backgroundcolor ffffff
skinparam defaultFontName "Arial"
skinparam classAttributeIconSize 0
skinparam shadowing false


skinparam nodesep 130
skinparam ranksep 130
skinparam linetype ortho


skinparam class {
    BackgroundColor<<Client>> #E6F3FF
    BorderColor<<Client>> #438dd5
    BackgroundColor<<Component>> #F5F5F5
    BorderColor<<Component>> #707070
    BackgroundColor<<Node>> #85bbf0
    BorderColor<<Node>> #438dd5
}



class "Rendering Engine" as RenderClient <<Client>>

class "Doc" as DocComponent <<Component>> {
  + evaluateLayout()
  + add(Doc)
  + remove(Doc)
  + getChild()
}

class "Leaf\n(String, Line Break)" as LeafNode <<Node>> {
  + evaluateLayout()
}

class "Composite\n(Group, Indent, Align)" as CompositeNode <<Node>> {
  + evaluateLayout()
  + add(Doc)
  + remove(Doc)
  + getChild()
}


RenderClient -right-> DocComponent

DocComponent <|--- LeafNode
DocComponent <|--- CompositeNode


LeafNode -[hidden]right- CompositeNode

CompositeNode o-right- "0..*" DocComponent : " child "

@enduml